<svg width="256" height="256" viewBox="0 0 256 256" fill="none" xmlns="http://www.w3.org/2000/svg">
  <defs>
    <linearGradient id="bg" x1="36" y1="24" x2="224" y2="232" gradientUnits="userSpaceOnUse">
      <stop stop-color="#15223B"/>
      <stop offset="0.56" stop-color="#0B6EEB"/>
      <stop offset="1" stop-color="#16C7A3"/>
    </linearGradient>
    <linearGradient id="page" x1="78" y1="54" x2="178" y2="198" gradientUnits="userSpaceOnUse">
      <stop stop-color="#FFFFFF"/>
      <stop offset="1" stop-color="#DCEBFF"/>
    </linearGradient>
    <filter id="shadow" x="34" y="36" width="188" height="188" filterUnits="userSpaceOnUse" color-interpolation-filters="sRGB">
      <feDropShadow dx="0" dy="16" stdDeviation="14" flood-color="#06132B" flood-opacity="0.28"/>
    </filter>
  </defs>
  <rect x="16" y="16" width="224" height="224" rx="54" fill="url(#bg)"/>
  <path d="M55 70C82 38 145 32 184 58C216 79 221 132 200 169C177 209 116 225 75 199C37 175 29 102 55 70Z" fill="white" fill-opacity="0.1"/>
  <g filter="url(#shadow)">
    <path d="M78 55H151L185 89V193C185 201.837 177.837 209 169 209H78C69.1634 209 62 201.837 62 193V71C62 62.1634 69.1634 55 78 55Z" fill="url(#page)"/>
    <path d="M151 55V83C151 89.6274 156.373 95 163 95H185L151 55Z" fill="#BFD9FF"/>
    <rect x="88" y="108" width="70" height="10" rx="5" fill="#0B6EEB"/>
    <rect x="88" y="133" width="45" height="10" rx="5" fill="#16A889"/>
    <rect x="88" y="158" width="76" height="10" rx="5" fill="#8EA7C7"/>
  </g>
  <circle cx="183" cy="71" r="18" fill="#17D7B2"/>
  <circle cx="183" cy="71" r="7" fill="white"/>
  <circle cx="72" cy="184" r="15" fill="#0B6EEB"/>
  <circle cx="72" cy="184" r="6" fill="white"/>
  <path d="M78 179C104 143 143 98 177 77" stroke="white" stroke-width="10" stroke-linecap="round" stroke-opacity="0.8"/>
  <path d="M78 179C104 143 143 98 177 77" stroke="#14213D" stroke-width="4" stroke-linecap="round" stroke-opacity="0.22"/>
</svg>
